<svg xmlns="http://www.w3.org/2000/svg" xmlns:xlink="http://www.w3.org/1999/xlink" width="50" zoomAndPan="magnify" viewBox="0 0 37.5 37.499999" height="50" preserveAspectRatio="xMidYMid meet" version="1.0"><defs><g/><clipPath id="27d0b01735"><path d="M 0 0 L 37 0 L 37 37.007812 L 0 37.007812 Z M 0 0 " clip-rule="nonzero"/></clipPath></defs><g fill="#000000" fill-opacity="1"><g transform="translate(8.290938, 18.902021)"><g><path d="M 1.5625 -1.8125 L 1.5625 0 L 0.5 0 L 0.5 -4.203125 L 1.5625 -4.203125 L 1.5625 -2.3125 L 1.578125 -2.3125 L 2.765625 -4.203125 L 3.890625 -4.203125 L 2.5 -2.109375 L 3.984375 0 L 2.734375 0 L 1.578125 -1.8125 Z M 1.5625 -1.8125 "/></g></g></g><g fill="#000000" fill-opacity="1"><g transform="translate(12.197193, 18.902021)"><g><path d="M 2.359375 -0.328125 C 2.296875 -0.179688 2.195312 -0.0703125 2.0625 0 C 1.925781 0.0703125 1.753906 0.109375 1.546875 0.109375 C 1.191406 0.109375 0.898438 0 0.671875 -0.21875 C 0.441406 -0.4375 0.328125 -0.757812 0.328125 -1.1875 L 0.328125 -3.15625 L 1.28125 -3.15625 L 1.28125 -1.390625 C 1.28125 -1.179688 1.316406 -1.023438 1.390625 -0.921875 C 1.472656 -0.828125 1.601562 -0.78125 1.78125 -0.78125 C 1.957031 -0.78125 2.09375 -0.832031 2.1875 -0.9375 C 2.28125 -1.050781 2.328125 -1.207031 2.328125 -1.40625 L 2.328125 -3.15625 L 3.265625 -3.15625 L 3.265625 0 L 2.375 0 L 2.375 -0.328125 Z M 2.359375 -0.328125 "/></g></g></g><g fill="#000000" fill-opacity="1"><g transform="translate(15.688373, 18.902021)"><g><path d="M 1.21875 -3.15625 L 1.21875 -2.828125 L 1.234375 -2.828125 C 1.316406 -2.984375 1.421875 -3.09375 1.546875 -3.15625 C 1.671875 -3.226562 1.832031 -3.265625 2.03125 -3.265625 L 2.03125 -2.3125 C 1.757812 -2.3125 1.566406 -2.265625 1.453125 -2.171875 C 1.335938 -2.078125 1.28125 -1.929688 1.28125 -1.734375 L 1.28125 0 L 0.328125 0 L 0.328125 -3.15625 Z M 1.21875 -3.15625 "/></g></g></g><g fill="#000000" fill-opacity="1"><g transform="translate(17.638656, 18.902021)"><g><path d="M 2.703125 -0.34375 C 2.628906 -0.207031 2.507812 -0.0976562 2.34375 -0.015625 C 2.175781 0.0664062 1.988281 0.109375 1.78125 0.109375 C 1.46875 0.109375 1.191406 0.0351562 0.953125 -0.109375 C 0.710938 -0.253906 0.523438 -0.457031 0.390625 -0.71875 C 0.253906 -0.976562 0.1875 -1.265625 0.1875 -1.578125 C 0.1875 -1.890625 0.253906 -2.171875 0.390625 -2.421875 C 0.535156 -2.679688 0.726562 -2.882812 0.96875 -3.03125 C 1.207031 -3.1875 1.476562 -3.265625 1.78125 -3.265625 C 1.96875 -3.265625 2.144531 -3.222656 2.3125 -3.140625 C 2.488281 -3.066406 2.617188 -2.960938 2.703125 -2.828125 L 2.71875 -2.828125 L 2.71875 -3.15625 L 3.65625 -3.15625 L 3.65625 0 L 2.71875 0 L 2.71875 -0.34375 Z M 2.71875 -1.578125 C 2.71875 -1.722656 2.679688 -1.859375 2.609375 -1.984375 C 2.535156 -2.109375 2.4375 -2.207031 2.3125 -2.28125 C 2.1875 -2.351562 2.050781 -2.390625 1.90625 -2.390625 C 1.769531 -2.390625 1.640625 -2.351562 1.515625 -2.28125 C 1.398438 -2.207031 1.304688 -2.109375 1.234375 -1.984375 C 1.171875 -1.859375 1.140625 -1.71875 1.140625 -1.5625 C 1.140625 -1.425781 1.171875 -1.296875 1.234375 -1.171875 C 1.304688 -1.046875 1.398438 -0.945312 1.515625 -0.875 C 1.640625 -0.8125 1.773438 -0.78125 1.921875 -0.78125 C 2.066406 -0.78125 2.195312 -0.8125 2.3125 -0.875 C 2.4375 -0.945312 2.535156 -1.046875 2.609375 -1.171875 C 2.679688 -1.296875 2.71875 -1.429688 2.71875 -1.578125 Z M 2.71875 -1.578125 "/></g></g></g><g fill="#000000" fill-opacity="1"><g transform="translate(21.527853, 18.902021)"><g><path d="M 1.390625 -0.96875 L 1.390625 0 L 0.40625 0 L 0.40625 -0.96875 Z M 1.390625 -0.96875 "/></g></g></g><g fill="#000000" fill-opacity="1"><g transform="translate(23.199523, 18.902021)"><g><path d="M 2.703125 -0.34375 C 2.628906 -0.207031 2.507812 -0.0976562 2.34375 -0.015625 C 2.175781 0.0664062 1.988281 0.109375 1.78125 0.109375 C 1.46875 0.109375 1.191406 0.0351562 0.953125 -0.109375 C 0.710938 -0.253906 0.523438 -0.457031 0.390625 -0.71875 C 0.253906 -0.976562 0.1875 -1.265625 0.1875 -1.578125 C 0.1875 -1.890625 0.253906 -2.171875 0.390625 -2.421875 C 0.535156 -2.679688 0.726562 -2.882812 0.96875 -3.03125 C 1.207031 -3.1875 1.476562 -3.265625 1.78125 -3.265625 C 1.96875 -3.265625 2.144531 -3.222656 2.3125 -3.140625 C 2.488281 -3.066406 2.617188 -2.960938 2.703125 -2.828125 L 2.71875 -2.828125 L 2.71875 -3.15625 L 3.65625 -3.15625 L 3.65625 0 L 2.71875 0 L 2.71875 -0.34375 Z M 2.71875 -1.578125 C 2.71875 -1.722656 2.679688 -1.859375 2.609375 -1.984375 C 2.535156 -2.109375 2.4375 -2.207031 2.3125 -2.28125 C 2.1875 -2.351562 2.050781 -2.390625 1.90625 -2.390625 C 1.769531 -2.390625 1.640625 -2.351562 1.515625 -2.28125 C 1.398438 -2.207031 1.304688 -2.109375 1.234375 -1.984375 C 1.171875 -1.859375 1.140625 -1.71875 1.140625 -1.5625 C 1.140625 -1.425781 1.171875 -1.296875 1.234375 -1.171875 C 1.304688 -1.046875 1.398438 -0.945312 1.515625 -0.875 C 1.640625 -0.8125 1.773438 -0.78125 1.921875 -0.78125 C 2.066406 -0.78125 2.195312 -0.8125 2.3125 -0.875 C 2.4375 -0.945312 2.535156 -1.046875 2.609375 -1.171875 C 2.679688 -1.296875 2.71875 -1.429688 2.71875 -1.578125 Z M 2.71875 -1.578125 "/></g></g></g><g fill="#000000" fill-opacity="1"><g transform="translate(27.088721, 18.902021)"><g><path d="M 1.28125 -4.203125 L 1.28125 -3.484375 L 0.34375 -3.484375 L 0.34375 -4.203125 Z M 1.28125 -3.15625 L 1.28125 0 L 0.34375 0 L 0.34375 -3.15625 Z M 1.28125 -3.15625 "/></g></g></g><path fill="#5383ff" d="M 6.640625 20.867188 L 30.367188 20.867188 C 30.523438 20.867188 30.675781 20.929688 30.789062 21.042969 C 30.898438 21.152344 30.960938 21.304688 30.960938 21.464844 L 30.960938 22.652344 C 30.960938 22.8125 30.898438 22.964844 30.789062 23.074219 C 30.675781 23.1875 30.523438 23.25 30.367188 23.25 L 6.640625 23.25 C 6.308594 23.25 6.042969 22.984375 6.042969 22.652344 L 6.042969 21.464844 C 6.042969 21.132812 6.308594 20.867188 6.640625 20.867188 Z M 6.640625 20.867188 " fill-opacity="1" fill-rule="nonzero"/><g fill="#000000" fill-opacity="1"><g transform="translate(6.895845, 22.520958)"><g><path d="M 0.421875 -0.90625 L 0.59375 -0.90625 L 0.984375 0 L 0.78125 0 L 0.6875 -0.203125 L 0.3125 -0.203125 L 0.234375 0 L 0.03125 0 Z M 0.625 -0.375 L 0.5 -0.671875 L 0.390625 -0.375 Z M 0.625 -0.375 "/></g></g></g><g fill="#000000" fill-opacity="1"><g transform="translate(7.931891, 22.520958)"><g><path d="M 0.484375 0.015625 C 0.359375 0.015625 0.257812 -0.015625 0.1875 -0.078125 C 0.125 -0.148438 0.09375 -0.253906 0.09375 -0.390625 L 0.09375 -0.890625 L 0.296875 -0.890625 L 0.296875 -0.390625 C 0.296875 -0.316406 0.3125 -0.257812 0.34375 -0.21875 C 0.375 -0.1875 0.421875 -0.171875 0.484375 -0.171875 C 0.546875 -0.171875 0.59375 -0.1875 0.625 -0.21875 C 0.65625 -0.257812 0.671875 -0.316406 0.671875 -0.390625 L 0.671875 -0.890625 L 0.875 -0.890625 L 0.875 -0.390625 C 0.875 -0.316406 0.863281 -0.253906 0.84375 -0.203125 C 0.820312 -0.160156 0.796875 -0.117188 0.765625 -0.078125 C 0.734375 -0.046875 0.691406 -0.0195312 0.640625 0 C 0.597656 0.0078125 0.546875 0.015625 0.484375 0.015625 Z M 0.484375 0.015625 "/></g></g></g><g fill="#000000" fill-opacity="1"><g transform="translate(8.924449, 22.520958)"><g><path d="M 0.3125 -0.71875 L 0.046875 -0.71875 L 0.046875 -0.890625 L 0.78125 -0.890625 L 0.78125 -0.71875 L 0.515625 -0.71875 L 0.515625 0 L 0.3125 0 Z M 0.3125 -0.71875 "/></g></g></g><g fill="#000000" fill-opacity="1"><g transform="translate(9.778869, 22.520958)"><g><path d="M 0.546875 0.015625 C 0.472656 0.015625 0.40625 0.00390625 0.34375 -0.015625 C 0.289062 -0.046875 0.242188 -0.0820312 0.203125 -0.125 C 0.160156 -0.164062 0.125 -0.210938 0.09375 -0.265625 C 0.0703125 -0.316406 0.0625 -0.378906 0.0625 -0.453125 C 0.0625 -0.515625 0.0703125 -0.570312 0.09375 -0.625 C 0.125 -0.6875 0.160156 -0.738281 0.203125 -0.78125 C 0.242188 -0.820312 0.289062 -0.851562 0.34375 -0.875 C 0.40625 -0.894531 0.472656 -0.90625 0.546875 -0.90625 C 0.617188 -0.90625 0.679688 -0.894531 0.734375 -0.875 C 0.796875 -0.851562 0.847656 -0.820312 0.890625 -0.78125 C 0.929688 -0.738281 0.960938 -0.6875 0.984375 -0.625 C 1.003906 -0.570312 1.015625 -0.515625 1.015625 -0.453125 C 1.015625 -0.390625 1.003906 -0.328125 0.984375 -0.265625 C 0.960938 -0.210938 0.929688 -0.164062 0.890625 -0.125 C 0.847656 -0.0820312 0.796875 -0.046875 0.734375 -0.015625 C 0.671875 0.00390625 0.609375 0.015625 0.546875 0.015625 Z M 0.546875 -0.171875 C 0.585938 -0.171875 0.625 -0.175781 0.65625 -0.1875 C 0.6875 -0.195312 0.710938 -0.210938 0.734375 -0.234375 C 0.765625 -0.265625 0.785156 -0.296875 0.796875 -0.328125 C 0.804688 -0.367188 0.8125 -0.410156 0.8125 -0.453125 C 0.8125 -0.484375 0.804688 -0.515625 0.796875 -0.546875 C 0.785156 -0.585938 0.765625 -0.617188 0.734375 -0.640625 C 0.710938 -0.671875 0.6875 -0.691406 0.65625 -0.703125 C 0.625 -0.722656 0.585938 -0.734375 0.546875 -0.734375 C 0.503906 -0.734375 0.46875 -0.722656 0.4375 -0.703125 C 0.40625 -0.691406 0.375 -0.671875 0.34375 -0.640625 C 0.320312 -0.617188 0.304688 -0.59375 0.296875 -0.5625 C 0.285156 -0.53125 0.28125 -0.492188 0.28125 -0.453125 C 0.28125 -0.410156 0.285156 -0.367188 0.296875 -0.328125 C 0.304688 -0.296875 0.320312 -0.269531 0.34375 -0.25 C 0.375 -0.226562 0.40625 -0.207031 0.4375 -0.1875 C 0.46875 -0.175781 0.503906 -0.171875 0.546875 -0.171875 Z M 0.546875 -0.171875 "/></g></g></g><g fill="#000000" fill-opacity="1"><g transform="translate(10.891659, 22.520958)"><g><path d="M 0.109375 -0.890625 L 0.328125 -0.890625 L 0.5625 -0.515625 L 0.796875 -0.890625 L 1 -0.890625 L 1 0 L 0.8125 0 L 0.8125 -0.578125 L 0.5625 -0.203125 L 0.546875 -0.203125 L 0.296875 -0.578125 L 0.296875 0 L 0.109375 0 Z M 0.109375 -0.890625 "/></g></g></g><g fill="#000000" fill-opacity="1"><g transform="translate(12.027472, 22.520958)"><g><path d="M 0.421875 -0.90625 L 0.59375 -0.90625 L 0.984375 0 L 0.78125 0 L 0.6875 -0.203125 L 0.3125 -0.203125 L 0.234375 0 L 0.03125 0 Z M 0.625 -0.375 L 0.5 -0.671875 L 0.390625 -0.375 Z M 0.625 -0.375 "/></g></g></g><g fill="#000000" fill-opacity="1"><g transform="translate(13.063519, 22.520958)"><g><path d="M 0.3125 -0.71875 L 0.046875 -0.71875 L 0.046875 -0.890625 L 0.78125 -0.890625 L 0.78125 -0.71875 L 0.515625 -0.71875 L 0.515625 0 L 0.3125 0 Z M 0.3125 -0.71875 "/></g></g></g><g fill="#000000" fill-opacity="1"><g transform="translate(13.917937, 22.520958)"><g><path d="M 0.109375 -0.890625 L 0.78125 -0.890625 L 0.78125 -0.71875 L 0.296875 -0.71875 L 0.296875 -0.546875 L 0.71875 -0.546875 L 0.71875 -0.359375 L 0.296875 -0.359375 L 0.296875 -0.171875 L 0.796875 -0.171875 L 0.796875 0 L 0.109375 0 Z M 0.109375 -0.890625 "/></g></g></g><g fill="#000000" fill-opacity="1"><g transform="translate(14.800496, 22.520958)"><g><path d="M 0.109375 -0.890625 L 0.453125 -0.890625 C 0.523438 -0.890625 0.585938 -0.878906 0.640625 -0.859375 C 0.703125 -0.835938 0.753906 -0.804688 0.796875 -0.765625 C 0.835938 -0.722656 0.867188 -0.675781 0.890625 -0.625 C 0.921875 -0.570312 0.9375 -0.515625 0.9375 -0.453125 C 0.9375 -0.390625 0.921875 -0.328125 0.890625 -0.265625 C 0.867188 -0.210938 0.835938 -0.164062 0.796875 -0.125 C 0.753906 -0.0820312 0.703125 -0.0507812 0.640625 -0.03125 C 0.585938 -0.0078125 0.523438 0 0.453125 0 L 0.109375 0 Z M 0.3125 -0.71875 L 0.3125 -0.171875 L 0.453125 -0.171875 C 0.492188 -0.171875 0.53125 -0.175781 0.5625 -0.1875 C 0.601562 -0.207031 0.632812 -0.226562 0.65625 -0.25 C 0.675781 -0.269531 0.691406 -0.296875 0.703125 -0.328125 C 0.722656 -0.367188 0.734375 -0.410156 0.734375 -0.453125 C 0.734375 -0.484375 0.722656 -0.515625 0.703125 -0.546875 C 0.691406 -0.585938 0.675781 -0.617188 0.65625 -0.640625 C 0.632812 -0.660156 0.601562 -0.675781 0.5625 -0.6875 C 0.53125 -0.707031 0.492188 -0.71875 0.453125 -0.71875 Z M 0.3125 -0.71875 "/></g></g></g><g fill="#000000" fill-opacity="1"><g transform="translate(15.82631, 22.520958)"><g/></g></g><g fill="#000000" fill-opacity="1"><g transform="translate(16.235614, 22.520958)"><g><path d="M 0.421875 -0.90625 L 0.59375 -0.90625 L 0.984375 0 L 0.78125 0 L 0.6875 -0.203125 L 0.3125 -0.203125 L 0.234375 0 L 0.03125 0 Z M 0.625 -0.375 L 0.5 -0.671875 L 0.390625 -0.375 Z M 0.625 -0.375 "/></g></g></g><g fill="#000000" fill-opacity="1"><g transform="translate(17.271661, 22.520958)"><g><path d="M 0.109375 -0.890625 L 0.3125 -0.890625 L 0.3125 0 L 0.109375 0 Z M 0.109375 -0.890625 "/></g></g></g><g fill="#000000" fill-opacity="1"><g transform="translate(17.727012, 22.520958)"><g/></g></g><g fill="#000000" fill-opacity="1"><g transform="translate(18.136316, 22.520958)"><g><path d="M 0.421875 0.015625 C 0.359375 0.015625 0.289062 0.00390625 0.21875 -0.015625 C 0.15625 -0.046875 0.0976562 -0.0820312 0.046875 -0.125 L 0.15625 -0.265625 C 0.195312 -0.234375 0.238281 -0.207031 0.28125 -0.1875 C 0.332031 -0.164062 0.382812 -0.15625 0.4375 -0.15625 C 0.46875 -0.15625 0.492188 -0.160156 0.515625 -0.171875 C 0.546875 -0.191406 0.5625 -0.21875 0.5625 -0.25 C 0.5625 -0.257812 0.554688 -0.269531 0.546875 -0.28125 C 0.546875 -0.289062 0.535156 -0.300781 0.515625 -0.3125 C 0.503906 -0.320312 0.488281 -0.328125 0.46875 -0.328125 C 0.445312 -0.335938 0.414062 -0.347656 0.375 -0.359375 C 0.332031 -0.367188 0.289062 -0.378906 0.25 -0.390625 C 0.21875 -0.410156 0.1875 -0.429688 0.15625 -0.453125 C 0.132812 -0.472656 0.113281 -0.492188 0.09375 -0.515625 C 0.0820312 -0.546875 0.078125 -0.585938 0.078125 -0.640625 C 0.078125 -0.679688 0.0820312 -0.71875 0.09375 -0.75 C 0.113281 -0.78125 0.140625 -0.804688 0.171875 -0.828125 C 0.203125 -0.859375 0.234375 -0.878906 0.265625 -0.890625 C 0.304688 -0.898438 0.347656 -0.90625 0.390625 -0.90625 C 0.460938 -0.90625 0.523438 -0.894531 0.578125 -0.875 C 0.628906 -0.851562 0.679688 -0.828125 0.734375 -0.796875 L 0.625 -0.640625 C 0.582031 -0.671875 0.539062 -0.691406 0.5 -0.703125 C 0.46875 -0.722656 0.429688 -0.734375 0.390625 -0.734375 C 0.347656 -0.734375 0.316406 -0.722656 0.296875 -0.703125 C 0.285156 -0.691406 0.28125 -0.675781 0.28125 -0.65625 C 0.28125 -0.644531 0.28125 -0.628906 0.28125 -0.609375 C 0.289062 -0.597656 0.300781 -0.585938 0.3125 -0.578125 C 0.332031 -0.578125 0.351562 -0.570312 0.375 -0.5625 C 0.394531 -0.550781 0.425781 -0.539062 0.46875 -0.53125 C 0.519531 -0.519531 0.5625 -0.503906 0.59375 -0.484375 C 0.625 -0.472656 0.648438 -0.457031 0.671875 -0.4375 C 0.703125 -0.414062 0.722656 -0.390625 0.734375 -0.359375 C 0.742188 -0.335938 0.75 -0.304688 0.75 -0.265625 C 0.75 -0.222656 0.738281 -0.179688 0.71875 -0.140625 C 0.707031 -0.109375 0.6875 -0.0820312 0.65625 -0.0625 C 0.632812 -0.0390625 0.601562 -0.0195312 0.5625 0 C 0.519531 0.0078125 0.472656 0.015625 0.421875 0.015625 Z M 0.421875 0.015625 "/></g></g></g><g fill="#000000" fill-opacity="1"><g transform="translate(18.980503, 22.520958)"><g><path d="M 0.421875 -0.90625 L 0.59375 -0.90625 L 0.984375 0 L 0.78125 0 L 0.6875 -0.203125 L 0.3125 -0.203125 L 0.234375 0 L 0.03125 0 Z M 0.625 -0.375 L 0.5 -0.671875 L 0.390625 -0.375 Z M 0.625 -0.375 "/></g></g></g><g fill="#000000" fill-opacity="1"><g transform="translate(20.016549, 22.520958)"><g><path d="M 0.109375 -0.890625 L 0.3125 -0.890625 L 0.3125 -0.171875 L 0.75 -0.171875 L 0.75 0 L 0.109375 0 Z M 0.109375 -0.890625 "/></g></g></g><g fill="#000000" fill-opacity="1"><g transform="translate(20.833875, 22.520958)"><g><path d="M 0.109375 -0.890625 L 0.78125 -0.890625 L 0.78125 -0.71875 L 0.296875 -0.71875 L 0.296875 -0.546875 L 0.71875 -0.546875 L 0.71875 -0.359375 L 0.296875 -0.359375 L 0.296875 -0.171875 L 0.796875 -0.171875 L 0.796875 0 L 0.109375 0 Z M 0.109375 -0.890625 "/></g></g></g><g fill="#000000" fill-opacity="1"><g transform="translate(21.716434, 22.520958)"><g><path d="M 0.421875 0.015625 C 0.359375 0.015625 0.289062 0.00390625 0.21875 -0.015625 C 0.15625 -0.046875 0.0976562 -0.0820312 0.046875 -0.125 L 0.15625 -0.265625 C 0.195312 -0.234375 0.238281 -0.207031 0.28125 -0.1875 C 0.332031 -0.164062 0.382812 -0.15625 0.4375 -0.15625 C 0.46875 -0.15625 0.492188 -0.160156 0.515625 -0.171875 C 0.546875 -0.191406 0.5625 -0.21875 0.5625 -0.25 C 0.5625 -0.257812 0.554688 -0.269531 0.546875 -0.28125 C 0.546875 -0.289062 0.535156 -0.300781 0.515625 -0.3125 C 0.503906 -0.320312 0.488281 -0.328125 0.46875 -0.328125 C 0.445312 -0.335938 0.414062 -0.347656 0.375 -0.359375 C 0.332031 -0.367188 0.289062 -0.378906 0.25 -0.390625 C 0.21875 -0.410156 0.1875 -0.429688 0.15625 -0.453125 C 0.132812 -0.472656 0.113281 -0.492188 0.09375 -0.515625 C 0.0820312 -0.546875 0.078125 -0.585938 0.078125 -0.640625 C 0.078125 -0.679688 0.0820312 -0.71875 0.09375 -0.75 C 0.113281 -0.78125 0.140625 -0.804688 0.171875 -0.828125 C 0.203125 -0.859375 0.234375 -0.878906 0.265625 -0.890625 C 0.304688 -0.898438 0.347656 -0.90625 0.390625 -0.90625 C 0.460938 -0.90625 0.523438 -0.894531 0.578125 -0.875 C 0.628906 -0.851562 0.679688 -0.828125 0.734375 -0.796875 L 0.625 -0.640625 C 0.582031 -0.671875 0.539062 -0.691406 0.5 -0.703125 C 0.46875 -0.722656 0.429688 -0.734375 0.390625 -0.734375 C 0.347656 -0.734375 0.316406 -0.722656 0.296875 -0.703125 C 0.285156 -0.691406 0.28125 -0.675781 0.28125 -0.65625 C 0.28125 -0.644531 0.28125 -0.628906 0.28125 -0.609375 C 0.289062 -0.597656 0.300781 -0.585938 0.3125 -0.578125 C 0.332031 -0.578125 0.351562 -0.570312 0.375 -0.5625 C 0.394531 -0.550781 0.425781 -0.539062 0.46875 -0.53125 C 0.519531 -0.519531 0.5625 -0.503906 0.59375 -0.484375 C 0.625 -0.472656 0.648438 -0.457031 0.671875 -0.4375 C 0.703125 -0.414062 0.722656 -0.390625 0.734375 -0.359375 C 0.742188 -0.335938 0.75 -0.304688 0.75 -0.265625 C 0.75 -0.222656 0.738281 -0.179688 0.71875 -0.140625 C 0.707031 -0.109375 0.6875 -0.0820312 0.65625 -0.0625 C 0.632812 -0.0390625 0.601562 -0.0195312 0.5625 0 C 0.519531 0.0078125 0.472656 0.015625 0.421875 0.015625 Z M 0.421875 0.015625 "/></g></g></g><g fill="#000000" fill-opacity="1"><g transform="translate(22.560621, 22.520958)"><g/></g></g><g fill="#000000" fill-opacity="1"><g transform="translate(22.969925, 22.520958)"><g><path d="M 0.53125 0.015625 C 0.457031 0.015625 0.394531 0.00390625 0.34375 -0.015625 C 0.289062 -0.046875 0.242188 -0.0820312 0.203125 -0.125 C 0.160156 -0.164062 0.125 -0.210938 0.09375 -0.265625 C 0.0703125 -0.316406 0.0625 -0.378906 0.0625 -0.453125 C 0.0625 -0.515625 0.0703125 -0.570312 0.09375 -0.625 C 0.125 -0.6875 0.160156 -0.738281 0.203125 -0.78125 C 0.242188 -0.820312 0.289062 -0.851562 0.34375 -0.875 C 0.40625 -0.894531 0.46875 -0.90625 0.53125 -0.90625 C 0.570312 -0.90625 0.609375 -0.898438 0.640625 -0.890625 C 0.679688 -0.890625 0.710938 -0.882812 0.734375 -0.875 C 0.765625 -0.863281 0.789062 -0.847656 0.8125 -0.828125 C 0.84375 -0.804688 0.867188 -0.789062 0.890625 -0.78125 L 0.765625 -0.625 C 0.734375 -0.65625 0.695312 -0.679688 0.65625 -0.703125 C 0.625 -0.722656 0.582031 -0.734375 0.53125 -0.734375 C 0.5 -0.734375 0.460938 -0.722656 0.421875 -0.703125 C 0.390625 -0.691406 0.363281 -0.671875 0.34375 -0.640625 C 0.320312 -0.617188 0.304688 -0.59375 0.296875 -0.5625 C 0.285156 -0.53125 0.28125 -0.492188 0.28125 -0.453125 C 0.28125 -0.410156 0.285156 -0.367188 0.296875 -0.328125 C 0.304688 -0.296875 0.320312 -0.269531 0.34375 -0.25 C 0.363281 -0.226562 0.390625 -0.207031 0.421875 -0.1875 C 0.460938 -0.175781 0.5 -0.171875 0.53125 -0.171875 C 0.582031 -0.171875 0.625 -0.175781 0.65625 -0.1875 C 0.695312 -0.207031 0.734375 -0.234375 0.765625 -0.265625 L 0.890625 -0.140625 C 0.867188 -0.117188 0.84375 -0.0976562 0.8125 -0.078125 C 0.789062 -0.0546875 0.765625 -0.0351562 0.734375 -0.015625 C 0.710938 -0.00390625 0.679688 0 0.640625 0 C 0.609375 0.0078125 0.570312 0.015625 0.53125 0.015625 Z M 0.53125 0.015625 "/></g></g></g><g fill="#000000" fill-opacity="1"><g transform="translate(23.93946, 22.520958)"><g><path d="M 0.109375 -0.890625 L 0.3125 -0.890625 L 0.3125 -0.546875 L 0.671875 -0.546875 L 0.671875 -0.890625 L 0.859375 -0.890625 L 0.859375 0 L 0.671875 0 L 0.671875 -0.359375 L 0.3125 -0.359375 L 0.3125 0 L 0.109375 0 Z M 0.109375 -0.890625 "/></g></g></g><g fill="#000000" fill-opacity="1"><g transform="translate(24.937134, 22.520958)"><g><path d="M 0.421875 -0.90625 L 0.59375 -0.90625 L 0.984375 0 L 0.78125 0 L 0.6875 -0.203125 L 0.3125 -0.203125 L 0.234375 0 L 0.03125 0 Z M 0.625 -0.375 L 0.5 -0.671875 L 0.390625 -0.375 Z M 0.625 -0.375 "/></g></g></g><g fill="#000000" fill-opacity="1"><g transform="translate(25.97318, 22.520958)"><g><path d="M 0.3125 -0.71875 L 0.046875 -0.71875 L 0.046875 -0.890625 L 0.78125 -0.890625 L 0.78125 -0.71875 L 0.515625 -0.71875 L 0.515625 0 L 0.3125 0 Z M 0.3125 -0.71875 "/></g></g></g><g fill="#000000" fill-opacity="1"><g transform="translate(26.827599, 22.520958)"><g><path d="M 0.109375 -0.890625 L 0.53125 -0.890625 C 0.625 -0.890625 0.703125 -0.863281 0.765625 -0.8125 C 0.796875 -0.769531 0.8125 -0.722656 0.8125 -0.671875 L 0.8125 -0.65625 C 0.8125 -0.632812 0.804688 -0.613281 0.796875 -0.59375 C 0.796875 -0.570312 0.789062 -0.550781 0.78125 -0.53125 C 0.769531 -0.519531 0.753906 -0.507812 0.734375 -0.5 C 0.722656 -0.488281 0.710938 -0.476562 0.703125 -0.46875 C 0.753906 -0.445312 0.796875 -0.421875 0.828125 -0.390625 C 0.859375 -0.359375 0.875 -0.3125 0.875 -0.25 C 0.875 -0.207031 0.863281 -0.171875 0.84375 -0.140625 C 0.832031 -0.109375 0.8125 -0.0820312 0.78125 -0.0625 C 0.75 -0.0390625 0.710938 -0.0234375 0.671875 -0.015625 C 0.628906 -0.00390625 0.582031 0 0.53125 0 L 0.109375 0 Z M 0.625 -0.625 C 0.625 -0.65625 0.613281 -0.675781 0.59375 -0.6875 C 0.570312 -0.707031 0.539062 -0.71875 0.5 -0.71875 L 0.296875 -0.71875 L 0.296875 -0.53125 L 0.484375 -0.53125 C 0.523438 -0.53125 0.554688 -0.535156 0.578125 -0.546875 C 0.609375 -0.566406 0.625 -0.59375 0.625 -0.625 Z M 0.671875 -0.265625 C 0.671875 -0.296875 0.660156 -0.320312 0.640625 -0.34375 C 0.617188 -0.363281 0.582031 -0.375 0.53125 -0.375 L 0.296875 -0.375 L 0.296875 -0.171875 L 0.53125 -0.171875 C 0.570312 -0.171875 0.601562 -0.175781 0.625 -0.1875 C 0.65625 -0.207031 0.671875 -0.234375 0.671875 -0.265625 Z M 0.671875 -0.265625 "/></g></g></g><g fill="#000000" fill-opacity="1"><g transform="translate(27.776668, 22.520958)"><g><path d="M 0.546875 0.015625 C 0.472656 0.015625 0.40625 0.00390625 0.34375 -0.015625 C 0.289062 -0.046875 0.242188 -0.0820312 0.203125 -0.125 C 0.160156 -0.164062 0.125 -0.210938 0.09375 -0.265625 C 0.0703125 -0.316406 0.0625 -0.378906 0.0625 -0.453125 C 0.0625 -0.515625 0.0703125 -0.570312 0.09375 -0.625 C 0.125 -0.6875 0.160156 -0.738281 0.203125 -0.78125 C 0.242188 -0.820312 0.289062 -0.851562 0.34375 -0.875 C 0.40625 -0.894531 0.472656 -0.90625 0.546875 -0.90625 C 0.617188 -0.90625 0.679688 -0.894531 0.734375 -0.875 C 0.796875 -0.851562 0.847656 -0.820312 0.890625 -0.78125 C 0.929688 -0.738281 0.960938 -0.6875 0.984375 -0.625 C 1.003906 -0.570312 1.015625 -0.515625 1.015625 -0.453125 C 1.015625 -0.390625 1.003906 -0.328125 0.984375 -0.265625 C 0.960938 -0.210938 0.929688 -0.164062 0.890625 -0.125 C 0.847656 -0.0820312 0.796875 -0.046875 0.734375 -0.015625 C 0.671875 0.00390625 0.609375 0.015625 0.546875 0.015625 Z M 0.546875 -0.171875 C 0.585938 -0.171875 0.625 -0.175781 0.65625 -0.1875 C 0.6875 -0.195312 0.710938 -0.210938 0.734375 -0.234375 C 0.765625 -0.265625 0.785156 -0.296875 0.796875 -0.328125 C 0.804688 -0.367188 0.8125 -0.410156 0.8125 -0.453125 C 0.8125 -0.484375 0.804688 -0.515625 0.796875 -0.546875 C 0.785156 -0.585938 0.765625 -0.617188 0.734375 -0.640625 C 0.710938 -0.671875 0.6875 -0.691406 0.65625 -0.703125 C 0.625 -0.722656 0.585938 -0.734375 0.546875 -0.734375 C 0.503906 -0.734375 0.46875 -0.722656 0.4375 -0.703125 C 0.40625 -0.691406 0.375 -0.671875 0.34375 -0.640625 C 0.320312 -0.617188 0.304688 -0.59375 0.296875 -0.5625 C 0.285156 -0.53125 0.28125 -0.492188 0.28125 -0.453125 C 0.28125 -0.410156 0.285156 -0.367188 0.296875 -0.328125 C 0.304688 -0.296875 0.320312 -0.269531 0.34375 -0.25 C 0.375 -0.226562 0.40625 -0.207031 0.4375 -0.1875 C 0.46875 -0.175781 0.503906 -0.171875 0.546875 -0.171875 Z M 0.546875 -0.171875 "/></g></g></g><g fill="#000000" fill-opacity="1"><g transform="translate(28.889457, 22.520958)"><g><path d="M 0.3125 -0.71875 L 0.046875 -0.71875 L 0.046875 -0.890625 L 0.78125 -0.890625 L 0.78125 -0.71875 L 0.515625 -0.71875 L 0.515625 0 L 0.3125 0 Z M 0.3125 -0.71875 "/></g></g></g><g fill="#000000" fill-opacity="1"><g transform="translate(29.743876, 22.520958)"><g><path d="M 0.078125 -0.203125 L 0.28125 -0.203125 L 0.28125 0 L 0.078125 0 Z M 0.078125 -0.203125 "/></g></g></g><g clip-path="url(#27d0b01735)"><path fill="#f19112" d="M 18.496094 37.003906 C 8.296875 37.003906 -0.00390625 28.703125 -0.00390625 18.5 C -0.00390625 8.300781 8.296875 0 18.496094 0 C 28.699219 0 37 8.300781 37 18.5 C 37 28.703125 28.699219 37.003906 18.496094 37.003906 " fill-opacity="1" fill-rule="nonzero"/></g><path fill="#f19112" d="M 26.601562 9.101562 L 10.390625 9.101562 C 7.796875 9.101562 5.695312 11.203125 5.695312 13.796875 L 5.695312 20.101562 C 5.695312 22.695312 7.796875 24.796875 10.390625 24.796875 L 10.542969 24.796875 L 10.542969 30.628906 L 16.375 24.796875 L 26.601562 24.796875 C 29.195312 24.796875 31.300781 22.695312 31.300781 20.101562 L 31.300781 13.796875 C 31.300781 11.203125 29.195312 9.101562 26.601562 9.101562 " fill-opacity="1" fill-rule="nonzero"/><path fill="#ffffff" d="M 10.390625 9.65625 C 8.109375 9.65625 6.25 11.515625 6.25 13.796875 L 6.25 20.101562 C 6.25 22.386719 8.109375 24.242188 10.390625 24.242188 L 10.542969 24.242188 C 10.847656 24.242188 11.097656 24.492188 11.097656 24.796875 L 11.097656 29.289062 L 15.980469 24.40625 C 16.085938 24.300781 16.226562 24.242188 16.375 24.242188 L 26.601562 24.242188 C 28.886719 24.242188 30.746094 22.386719 30.746094 20.101562 L 30.746094 13.796875 C 30.746094 11.515625 28.886719 9.65625 26.601562 9.65625 Z M 10.542969 31.183594 C 10.46875 31.183594 10.398438 31.171875 10.328125 31.144531 C 10.121094 31.058594 9.988281 30.855469 9.988281 30.628906 L 9.988281 25.335938 C 7.28125 25.128906 5.140625 22.859375 5.140625 20.101562 L 5.140625 13.796875 C 5.140625 10.902344 7.496094 8.546875 10.390625 8.546875 L 26.601562 8.546875 C 29.5 8.546875 31.855469 10.902344 31.855469 13.796875 L 31.855469 20.101562 C 31.855469 22.996094 29.5 25.351562 26.601562 25.351562 L 16.605469 25.351562 L 10.933594 31.023438 C 10.828125 31.128906 10.6875 31.183594 10.542969 31.183594 " fill-opacity="1" fill-rule="nonzero"/><path fill="#ffffff" d="M 14.410156 16.613281 C 14.410156 17.648438 13.570312 18.488281 12.535156 18.488281 C 11.496094 18.488281 10.660156 17.648438 10.660156 16.613281 C 10.660156 15.578125 11.496094 14.738281 12.535156 14.738281 C 13.570312 14.738281 14.410156 15.578125 14.410156 16.613281 " fill-opacity="1" fill-rule="nonzero"/><path fill="#ffffff" d="M 20.371094 16.613281 C 20.371094 17.648438 19.53125 18.488281 18.496094 18.488281 C 17.460938 18.488281 16.621094 17.648438 16.621094 16.613281 C 16.621094 15.578125 17.460938 14.738281 18.496094 14.738281 C 19.53125 14.738281 20.371094 15.578125 20.371094 16.613281 " fill-opacity="1" fill-rule="nonzero"/><path fill="#ffffff" d="M 26.335938 16.613281 C 26.335938 17.648438 25.496094 18.488281 24.460938 18.488281 C 23.425781 18.488281 22.585938 17.648438 22.585938 16.613281 C 22.585938 15.578125 23.425781 14.738281 24.460938 14.738281 C 25.496094 14.738281 26.335938 15.578125 26.335938 16.613281 " fill-opacity="1" fill-rule="nonzero"/></svg>